<svg width="24" height="24" viewBox="0 0 24 24" fill="none" xmlns="http://www.w3.org/2000/svg">
<path fill-rule="evenodd" clip-rule="evenodd" d="M8.90549 6.5C8.57245 7.79392 7.39788 8.75 6 8.75C4.60212 8.75 3.42755 7.79392 3.09451 6.5H0.75C0.335786 6.5 0 6.16421 0 5.75C0 5.33579 0.335786 5 0.75 5H3.09451C3.42755 3.70608 4.60212 2.75 6 2.75C7.39788 2.75 8.57245 3.70608 8.90549 5H23.25C23.6642 5 24 5.33579 24 5.75C24 6.16421 23.6642 6.5 23.25 6.5H8.90549ZM7.5 5.75C7.5 6.57843 6.82843 7.25 6 7.25C5.17157 7.25 4.5 6.57843 4.5 5.75C4.5 4.92157 5.17157 4.25 6 4.25C6.82843 4.25 7.5 4.92157 7.5 5.75Z" fill="#336E7A"/>
<path fill-rule="evenodd" clip-rule="evenodd" d="M20.9055 12.75C20.5725 14.0439 19.3979 15 18 15C16.6021 15 15.4275 14.0439 15.0945 12.75H0.75C0.335786 12.75 0 12.4142 0 12C0 11.5858 0.335786 11.25 0.75 11.25H15.0945C15.4275 9.95608 16.6021 9 18 9C19.3979 9 20.5725 9.95608 20.9055 11.25H23.25C23.6642 11.25 24 11.5858 24 12C24 12.4142 23.6642 12.75 23.25 12.75H20.9055ZM19.5 12C19.5 12.8284 18.8284 13.5 18 13.5C17.1716 13.5 16.5 12.8284 16.5 12C16.5 11.1716 17.1716 10.5 18 10.5C18.8284 10.5 19.5 11.1716 19.5 12Z" fill="#336E7A"/>
<path fill-rule="evenodd" clip-rule="evenodd" d="M8.90549 19C8.57245 20.2939 7.39788 21.25 6 21.25C4.60212 21.25 3.42755 20.2939 3.09451 19H0.75C0.335786 19 0 18.6642 0 18.25C0 17.8358 0.335786 17.5 0.75 17.5H3.09451C3.42755 16.2061 4.60212 15.25 6 15.25C7.39788 15.25 8.57245 16.2061 8.90549 17.5H23.25C23.6642 17.5 24 17.8358 24 18.25C24 18.6642 23.6642 19 23.25 19H8.90549ZM6 19.75C6.82843 19.75 7.5 19.0784 7.5 18.25C7.5 17.4216 6.82843 16.75 6 16.75C5.17157 16.75 4.5 17.4216 4.5 18.25C4.5 19.0784 5.17157 19.75 6 19.75Z" fill="#336E7A"/>
</svg>
